# xmcd CD database file
#
# Track frame offsets:
#	150
#	37766
#	57122
#	97012
#	125225
#	148820
#	163407
#	182092
#	200943
#	229282
#	249089
#	267533
#	305523
#
# Disc length: 4362 seconds
#
# Revision: 0
# Processed by: cddbd v1.4PL0 Copyright (c) Steve Scherf et al.
# Submitted via: CDex 1.40Release
#
DISCID=c711080d
DTITLE=Various Artist - Blues Summit - Pancevo 2001
DYEAR=2001
DGENRE=Blues
TTITLE0=Tutu (Di Luna Blues Band)
TTITLE1=Bwonskin Woman (Blues Trio)
TTITLE2=Ain't No Love (Torro Blues Band)
TTITLE3=Rollin' and Tumblin' (Raw Hide)
TTITLE4=After All (Roosterblues)
TTITLE5=Tacos De Pescado (Gamblers)
TTITLE6=Coffee Mama (Point Blank)
TTITLE7=Chevrolette (Toth Bagi Band)
TTITLE8=Don't Go No Further (Raw Hide)
TTITLE9=Who Do You Love (Blues Trio)
TTITLE10=You Don't Love Me (Divin' Duck)
TTITLE11=Everyday I Have The Blues (Di Luna Blues Band)
TTITLE12=Green Onions (Blue Family)
EXTD=YEAR: 2001 ID3G: 0
EXTT0=
EXTT1=
EXTT2=
EXTT3=
EXTT4=
EXTT5=
EXTT6=
EXTT7=
EXTT8=
EXTT9=
EXTT10=
EXTT11=
EXTT12=
PLAYORDER=
